<?xml version="1.0" encoding="utf-8"?>
<!-- GMAT.site Open Graph banner — 1200×628; uses site favicon/logo and title -->
<svg xmlns="http://www.w3.org/2000/svg" width="1200" height="628" viewBox="0 0 1200 628" role="img" aria-labelledby="title desc">
  <title id="title">GMAT.site — Smart Daily GMAT Practice</title>
  <desc id="desc">GMAT.site social banner with site logo and tagline</desc>

  <defs>
    <linearGradient id="bgGrad" x1="0" x2="1" y1="0" y2="1">
      <stop offset="0%" stop-color="#0ea5e9"/>
      <stop offset="50%" stop-color="#6366f1"/>
      <stop offset="100%" stop-color="#1d4ed8"/>
    </linearGradient>

    <radialGradient id="softGlow" cx="80%" cy="20%" r="70%">
      <stop offset="0%" stop-color="#ffffff" stop-opacity="0.08"/>
      <stop offset="100%" stop-color="#ffffff" stop-opacity="0"/>
    </radialGradient>

    <filter id="grain" x="-10%" y="-10%" width="120%" height="120%">
      <feTurbulence type="fractalNoise" baseFrequency="0.9" numOctaves="1" stitchTiles="stitch" result="noise"/>
      <feColorMatrix type="saturate" values="0" in="noise" result="mono"/>
      <feComponentTransfer in="mono">
        <feFuncA type="table" tableValues="0 0.06"/>
      </feComponentTransfer>
      <feBlend in="SourceGraphic" mode="overlay"/>
    </filter>

    <!-- small shadow for the logo block -->
    <filter id="logoShadow" x="-50%" y="-50%" width="200%" height="200%">
      <feGaussianBlur in="SourceAlpha" stdDeviation="6" result="blur"/>
      <feOffset dx="0" dy="6" result="off"/>
      <feColorMatrix in="off" type="matrix" values="0 0 0 0 0  0 0 0 0 0  0 0 0 0 0  0 0 0 0.22 0"/>
      <feBlend in2="SourceGraphic"/>
    </filter>
  </defs>

  <!-- Background -->
  <rect width="1200" height="628" fill="url(#bgGrad)"/>
  <rect x="0" y="0" width="1200" height="628" fill="url(#softGlow)" style="mix-blend-mode:screen"/>

  <!-- Decorative diagonal pattern (subtle) -->
  <g opacity="0.06" fill="none" stroke="#ffffff">
    <path d="M0 480 L1200 0" stroke-width="200" stroke-linecap="round"/>
  </g>

  <!-- Left logo card (uses favicon artwork) -->
  <g transform="translate(80,164)">
    <!-- rounded square background matching favicon -->
    <g filter="url(#logoShadow)">
      <rect width="240" height="240" rx="36" fill="#1d4ed8"/>
    </g>
    <!-- favicon path (adapted) -->
    <g transform="translate(40,40) scale(2.5)" fill="#fff">
      <!-- original favicon rectangle is implicit in the rounded square above -->
      <path d="M20 44V20h8.5c3.2 0 5.7.8 7.5 2.4 1.8 1.6 2.7 3.7 2.7 6.3 0 2.7-.9 4.9-2.7 6.5-1.8 1.6-4.3 2.4-7.5 2.4H26v6.4H20zm6-12h2.2c1.7 0 3-.4 3.9-1.2.9-.8 1.4-2 1.4-3.6s-.5-2.8-1.4-3.6c-.9-.8-2.2-1.2-3.9-1.2H26v9.6z"/>
    </g>
  </g>

  <!-- Title and tagline -->
  <g transform="translate(360,230)">
    <text x="0" y="0" fill="#ffffff" font-family="Inter, system-ui, -apple-system, 'Segoe UI', Roboto, 'Helvetica Neue', Arial" font-size="56" font-weight="700">GMAT.site</text>
    <text x="0" y="64" fill="#e6eefc" font-family="Inter, system-ui, -apple-system, 'Segoe UI', Roboto, 'Helvetica Neue', Arial" font-size="24" font-weight="600">Smart daily GMAT practice • Short, science-backed lessons</text>
  </g>

  <!-- Right-side subtle statistic or callout box -->
  <g transform="translate(360,340)">
    <rect x="0" y="10" width="720" height="120" rx="12" fill="rgba(255,255,255,0.05)"/>
    <text x="28" y="56" fill="#ffffff" font-family="Inter, system-ui, -apple-system, 'Segoe UI', Roboto, 'Helvetica Neue', Arial" font-size="20" font-weight="600">Daily adaptive practice • Track progress • Free</text>
  </g>

  <!-- Small site URL at bottom-right -->
  <text x="980" y="600" fill="#e6eefc" font-family="Inter, system-ui, -apple-system, 'Segoe UI', Roboto, 'Helvetica Neue', Arial" font-size="16" font-weight="600" opacity="0.9">gmat.site</text>

  <!-- Grain overlay for texture -->
  <rect width="1200" height="628" fill="#ffffff" opacity="0.02" filter="url(#grain)"/>
</svg>
